Coordinates
version=1
nRows=27
nColumns=38
inDegrees=no

Units are S.I. units (second, meters, Newtons, ...)
If the header above contains a line with 'inDegrees', this indicates whether rotational values are in degrees (yes) or radians (no).

endheader
time	pelvis_tilt	pelvis_list	pelvis_rotation	pelvis_tx	pelvis_ty	pelvis_tz	hip_flexion_r	hip_adduction_r	hip_rotation_r	knee_angle_r	ankle_angle_r	subtalar_angle_r	mtp_angle_r	hip_flexion_l	hip_adduction_l	hip_rotation_l	knee_angle_l	ankle_angle_l	subtalar_angle_l	mtp_angle_l	lumbar_extension	lumbar_bending	lumbar_rotation	arm_flex_r	arm_add_r	arm_rot_r	elbow_flex_r	pro_sup_r	wrist_flex_r	wrist_dev_r	arm_flex_l	arm_add_l	arm_rot_l	elbow_flex_l	pro_sup_l	wrist_flex_l	wrist_dev_l
1.02	-0.714178	1.41383	-0.646237	0.695428	0.318514	0.943323	0.246832	0.0630372	-0.341467	0.430405	0.00650192	0	0	0.107735	-0.247919	0.0844566	1.30202	-0.143426	0	0	-0.176774	0.139205	-0.187738	-0.198534	-0.168276	0.0618639	0.580748	1.12802	0	0	-0.022035	-0.236895	0.460333	0.602942	0.802971	0	0
1.03	-0.692051	1.41493	-0.674367	0.69415	0.308192	0.945749	0.225768	0.0680485	-0.333323	0.416843	0.0115698	0	0	0.132731	-0.236995	0.0867297	1.33108	-0.118971	0	0	-0.179909	0.13552	-0.178008	-0.197072	-0.171682	0.0617562	0.585537	1.12698	0	0	-0.0295674	-0.237569	0.455561	0.606835	0.802454	0	0
1.04	-0.673294	1.41673	-0.700206	0.69276	0.297898	0.948079	0.204748	0.0727624	-0.325616	0.401165	0.0158281	0	0	0.15797	-0.226247	0.0864964	1.35496	-0.0997722	0	0	-0.182034	0.131251	-0.16768	-0.195689	-0.174558	0.0596187	0.590412	1.12612	0	0	-0.0385192	-0.238433	0.44836	0.613289	0.802668	0	0
1.05	-0.659966	1.4191	-0.721193	0.691303	0.28766	0.950248	0.184643	0.0772119	-0.318731	0.384875	0.0195378	0	0	0.183798	-0.216152	0.085083	1.37399	-0.0860388	0	0	-0.182916	0.126857	-0.157157	-0.194347	-0.177196	0.0568581	0.59482	1.1264	0	0	-0.0485452	-0.239355	0.439169	0.621698	0.803739	0	0
1.06	-0.651489	1.42152	-0.737208	0.68991	0.277548	0.952247	0.165257	0.0815215	-0.31284	0.368549	0.0230733	0	0	0.210105	-0.206883	0.083369	1.38863	-0.0763805	0	0	-0.1831	0.123025	-0.146932	-0.192928	-0.179914	0.0542258	0.598818	1.12793	0	0	-0.0591957	-0.24012	0.428494	0.631497	0.806135	0	0
1.07	-0.642607	1.4235	-0.754229	0.688571	0.26743	0.954164	0.145228	0.0857352	-0.306798	0.351929	0.0266737	0	0	0.235	-0.19856	0.080302	1.39835	-0.070203	0	0	-0.183554	0.119531	-0.136105	-0.191926	-0.182455	0.0488022	0.604388	1.12916	0	0	-0.0703835	-0.240414	0.415934	0.642182	0.810666	0	0
1.08	-0.630083	1.42481	-0.775117	0.687235	0.257259	0.956025	0.123933	0.0898123	-0.300535	0.334735	0.0300436	0	0	0.257893	-0.191218	0.0759733	1.40316	-0.0668248	0	0	-0.184678	0.116045	-0.124947	-0.191145	-0.184461	0.0411754	0.610612	1.12941	0	0	-0.0817878	-0.240534	0.402439	0.653476	0.81633	0	0
1.09	-0.613516	1.42609	-0.800469	0.685902	0.247094	0.957746	0.102801	0.0927875	-0.294424	0.318799	0.0337128	0	0	0.27919	-0.184129	0.0702611	1.4035	-0.0641981	0	0	-0.186047	0.111999	-0.113476	-0.190106	-0.186538	0.0347247	0.615865	1.1294	0	0	-0.0925359	-0.240379	0.390177	0.662694	0.820779	0	0
1.1	-0.59057	1.42683	-0.832857	0.684552	0.236983	0.959356	0.0806662	0.0952031	-0.286157	0.302865	0.036865	0	0	0.298028	-0.17777	0.0625159	1.39951	-0.0604739	0	0	-0.1888	0.107526	-0.101856	-0.188321	-0.188748	0.0293413	0.620473	1.12973	0	0	-0.10382	-0.239791	0.375042	0.672785	0.826991	0	0
1.11	-0.562805	1.427	-0.870467	0.68322	0.22692	0.960841	0.0581116	0.0969511	-0.275693	0.287899	0.0399057	0	0	0.314744	-0.172496	0.0528751	1.39164	-0.0541869	0	0	-0.192586	0.102738	-0.0900542	-0.185771	-0.191126	0.0249793	0.624714	1.12931	0	0	-0.114982	-0.238794	0.358609	0.682436	0.834478	0	0
1.12	-0.529962	1.42744	-0.913077	0.681942	0.217036	0.96219	0.0367214	0.0970265	-0.265011	0.275053	0.0436094	0	0	0.330524	-0.164973	0.044973	1.38054	-0.0455518	0	0	-0.196867	0.0970198	-0.0783835	-0.182373	-0.193262	0.020658	0.62815	1.12825	0	0	-0.125168	-0.237461	0.342169	0.690415	0.841216	0	0
1.13	-0.493591	1.42712	-0.959161	0.680717	0.207201	0.9634	0.0151782	0.0965991	-0.253848	0.263197	0.0476172	0	0	0.3441	-0.157838	0.0367252	1.36545	-0.0346567	0	0	-0.202099	0.0912218	-0.0668217	-0.178638	-0.195368	0.0163735	0.631422	1.12714	0	0	-0.134686	-0.235651	0.325627	0.697427	0.848136	0	0
1.14	-0.455121	1.42636	-1.00678	0.679612	0.197446	0.964445	-0.00599542	0.0955391	-0.243104	0.252481	0.0519848	0	0	0.356458	-0.151173	0.0281632	1.34711	-0.0238256	0	0	-0.207836	0.0853138	-0.0558988	-0.174365	-0.197541	0.013211	0.634059	1.1264	0	0	-0.143286	-0.233529	0.310179	0.703187	0.85531	0	0
1.15	-0.419434	1.42558	-1.05117	0.678543	0.187759	0.965258	-0.0261659	0.0940096	-0.233282	0.242772	0.0567683	0	0	0.368356	-0.145831	0.0190438	1.32553	-0.0134369	0	0	-0.213138	0.0794445	-0.0456943	-0.169237	-0.199726	0.0118735	0.63512	1.12614	0	0	-0.151098	-0.231393	0.296957	0.707298	0.862139	0	0
1.16	-0.382629	1.42435	-1.0963	0.677625	0.178166	0.965954	-0.0460879	0.0920158	-0.223281	0.233948	0.0616232	0	0	0.37868	-0.140656	0.00925312	1.30018	-0.00377777	0	0	-0.219023	0.0736225	-0.0359462	-0.163514	-0.202185	0.0118163	0.635333	1.12628	0	0	-0.157549	-0.229004	0.286449	0.709102	0.867556	0	0
1.17	-0.349575	1.42317	-1.13646	0.676856	0.16866	0.966466	-0.0650897	0.0900601	-0.213971	0.225796	0.066653	0	0	0.388461	-0.136052	-0.000113164	1.27166	0.00560002	0	0	-0.224515	0.0683477	-0.0275881	-0.157227	-0.204528	0.0122437	0.634842	1.12727	0	0	-0.162947	-0.226531	0.277394	0.708811	0.870024	0	0
1.18	-0.320462	1.4222	-1.17213	0.676168	0.159144	0.966809	-0.0829762	0.0881321	-0.205547	0.218577	0.0719038	0	0	0.397376	-0.1329	-0.0100325	1.24006	0.0146854	0	0	-0.229168	0.0634581	-0.0202586	-0.150474	-0.206717	0.0136462	0.633691	1.12882	0	0	-0.167742	-0.224007	0.27077	0.706181	0.869727	0	0
1.19	-0.293307	1.42164	-1.20606	0.675511	0.14957	0.966981	-0.0995407	0.0857788	-0.197344	0.2127	0.0774986	0	0	0.405273	-0.131078	-0.0219799	1.20526	0.0226321	0	0	-0.232868	0.0585201	-0.0130636	-0.143463	-0.208779	0.0158962	0.631549	1.13088	0	0	-0.1719	-0.221418	0.266821	0.701187	0.867057	0	0
1.2	-0.265739	1.42123	-1.24006	0.674916	0.140037	0.967011	-0.115252	0.082925	-0.189386	0.207817	0.0834738	0	0	0.411861	-0.129616	-0.0354626	1.16751	0.0297863	0	0	-0.236361	0.0534092	-0.00645982	-0.135932	-0.210552	0.0185359	0.628566	1.13338	0	0	-0.175153	-0.219074	0.265076	0.694666	0.86184	0	0
1.21	-0.237538	1.4209	-1.27421	0.674415	0.130562	0.966911	-0.130314	0.0796459	-0.18182	0.203645	0.0898092	0	0	0.416992	-0.128164	-0.0497812	1.12714	0.0367659	0	0	-0.239802	0.0481647	-0.000443891	-0.128115	-0.212019	0.021166	0.625296	1.13623	0	0	-0.177396	-0.217037	0.266024	0.686631	0.854745	0	0
1.22	-0.211059	1.42103	-1.30621	0.673989	0.121098	0.966645	-0.144344	0.0763059	-0.174421	0.200012	0.0965034	0	0	0.421339	-0.127179	-0.0652084	1.08447	0.0436329	0	0	-0.242568	0.043026	0.0049155	-0.120241	-0.21311	0.0236582	0.621975	1.13939	0	0	-0.179244	-0.215255	0.268586	0.677826	0.8458	0	0
1.23	-0.18574	1.42138	-1.33695	0.673602	0.111609	0.966231	-0.157525	0.0727874	-0.16744	0.197436	0.103586	0	0	0.424566	-0.126743	-0.0821542	1.03959	0.0508335	0	0	-0.24495	0.0379637	0.00976149	-0.112277	-0.213929	0.0262826	0.618696	1.14263	0	0	-0.181004	-0.213651	0.27286	0.668227	0.836103	0	0
1.24	-0.160784	1.42143	-1.36677	0.673302	0.10208	0.965722	-0.170557	0.0690976	-0.161621	0.19573	0.111468	0	0	0.425957	-0.126246	-0.100127	0.992277	0.0589389	0	0	-0.247374	0.0329852	0.013784	-0.104123	-0.214465	0.0293502	0.614992	1.1456	0	0	-0.182523	-0.212047	0.277528	0.658216	0.825575	0	0
1.25	-0.135579	1.42131	-1.39641	0.67311	0.092502	0.965116	-0.183651	0.0651494	-0.156946	0.194229	0.119923	0	0	0.425626	-0.125404	-0.119022	0.942917	0.06775	0	0	-0.249834	0.0280481	0.0172644	-0.0958671	-0.214652	0.0324363	0.610901	1.14787	0	0	-0.183575	-0.210533	0.284103	0.647151	0.814983	0	0
1.26	-0.105524	1.42014	-1.43129	0.672945	0.0828254	0.96455	-0.198615	0.0603607	-0.151316	0.19152	0.128067	0	0	0.421605	-0.123936	-0.140142	0.890323	0.0767942	0	0	-0.253259	0.0221803	0.0206283	-0.0866729	-0.214369	0.0365502	0.60482	1.14986	0	0	-0.184208	-0.209801	0.29446	0.635269	0.799365	0	0
1.27	-0.0798669	1.41938	-1.46108	0.672902	0.0730414	0.963821	-0.213334	0.056109	-0.146453	0.188218	0.136004	0	0	0.417054	-0.122432	-0.161405	0.836443	0.0866723	0	0	-0.255742	0.0169584	0.0226836	-0.0776238	-0.213955	0.0413144	0.599221	1.15058	0	0	-0.186052	-0.208614	0.301047	0.625156	0.786201	0	0
1.28	-0.0526011	1.41856	-1.49274	0.672912	0.0631666	0.963007	-0.227659	0.0511525	-0.142652	0.185915	0.144429	0	0	0.410721	-0.120271	-0.184464	0.780351	0.0964134	0	0	-0.258131	0.0112869	0.024903	-0.0687198	-0.21334	0.0465237	0.593613	1.1506	0	0	-0.188054	-0.207503	0.307942	0.615314	0.775322	0	0
